<svg width="250" height="250" viewBox="0 0 250 250" fill="none" xmlns="http://www.w3.org/2000/svg">
<circle cx="125" cy="125" r="100" fill="#1D3960"/>
<path d="M215 125C215 174.706 174.706 215 125 215C75.2944 215 35 174.706 35 125C35 75.2944 75.2944 35 125 35C174.706 35 215 75.2944 215 125Z" fill="white"/>
<circle cx="125" cy="125" r="80" fill="#23A585"/>
<circle cx="125" cy="125" r="70" fill="white"/>
<circle cx="125" cy="125" r="60" fill="#1D3960"/>
<circle cx="125" cy="125" r="55" fill="white"/>
<circle cx="125" cy="125" r="40" fill="#23A585"/>
<circle cx="125" cy="125" r="35" fill="white"/>
<path d="M130 125C130 127.761 127.761 130 125 130C122.239 130 120 127.761 120 125C120 122.239 122.239 120 125 120C127.761 120 130 122.239 130 125Z" fill="#23A585"/>
<mask id="path-10-outside-1_7_118" maskUnits="userSpaceOnUse" x="74" y="73" width="102" height="102" fill="black">
<rect fill="white" x="74" y="73" width="102" height="102"/>
<path d="M126.064 152.724L125 174L123.937 152.724L125.001 131.447L126.064 152.724ZM118.594 152.021L112.059 172.296L116.538 151.47L123.073 131.193L118.594 152.021ZM133.462 151.47L137.94 172.296L131.406 152.021L126.928 131.193L133.462 151.47ZM140.283 148.344L150 167.302L138.44 149.407L128.724 130.449L140.283 148.344ZM111.56 149.407L99.999 167.301L109.717 148.344L121.276 130.449L111.56 149.407ZM146.063 143.559L160.355 159.355L144.559 145.062L130.267 129.266L146.063 143.559ZM105.441 145.062L89.6445 159.354L103.937 143.559L119.734 129.267L105.441 145.062ZM150.407 137.44L168.301 149L149.344 139.283L131.45 127.723L150.407 137.44ZM100.656 139.283L81.6982 148.999L99.5928 137.44L118.551 127.724L100.656 139.283ZM153.021 130.406L173.296 136.941L152.47 132.462L132.193 125.927L153.021 130.406ZM97.5303 132.462L76.7031 136.94L96.9795 130.406L117.807 125.928L97.5303 132.462ZM117.553 124L96.2764 125.063L75 123.999L96.2764 122.936L117.553 124ZM175.001 124L153.724 125.063L132.447 123.999L153.724 122.936L175.001 124ZM97.5303 115.538L117.807 122.073L96.9795 117.594L76.7041 111.059L97.5303 115.538ZM153.021 117.594L132.193 122.072L152.47 115.538L173.296 111.06L153.021 117.594ZM100.656 108.717L118.55 120.276L99.5928 110.56L81.6992 98.999L100.656 108.717ZM150.407 110.56L131.449 120.275L149.344 108.717L168.302 99L150.407 110.56ZM105.441 102.937L119.733 118.734L103.938 104.441L89.6455 88.6445L105.441 102.937ZM146.062 104.441L130.266 118.733L144.559 102.937L160.355 88.6445L146.062 104.441ZM111.56 98.5928L121.276 117.551L109.717 99.6562L100 80.6982L111.56 98.5928ZM140.283 99.6562L128.723 117.55L138.44 98.5928L150 80.6992L140.283 99.6562ZM118.594 95.9795L123.072 116.807L116.538 96.5303L112.06 75.7031L118.594 95.9795ZM133.462 96.5303L126.927 116.807L131.406 95.9795L137.941 75.7041L133.462 96.5303ZM126.064 95.2764L125 116.553L123.937 95.2764L125.001 74L126.064 95.2764Z"/>
</mask>
<path d="M126.064 152.724L125 174L123.937 152.724L125.001 131.447L126.064 152.724ZM118.594 152.021L112.059 172.296L116.538 151.47L123.073 131.193L118.594 152.021ZM133.462 151.47L137.94 172.296L131.406 152.021L126.928 131.193L133.462 151.47ZM140.283 148.344L150 167.302L138.44 149.407L128.724 130.449L140.283 148.344ZM111.56 149.407L99.999 167.301L109.717 148.344L121.276 130.449L111.56 149.407ZM146.063 143.559L160.355 159.355L144.559 145.062L130.267 129.266L146.063 143.559ZM105.441 145.062L89.6445 159.354L103.937 143.559L119.734 129.267L105.441 145.062ZM150.407 137.44L168.301 149L149.344 139.283L131.45 127.723L150.407 137.44ZM100.656 139.283L81.6982 148.999L99.5928 137.44L118.551 127.724L100.656 139.283ZM153.021 130.406L173.296 136.941L152.47 132.462L132.193 125.927L153.021 130.406ZM97.5303 132.462L76.7031 136.94L96.9795 130.406L117.807 125.928L97.5303 132.462ZM117.553 124L96.2764 125.063L75 123.999L96.2764 122.936L117.553 124ZM175.001 124L153.724 125.063L132.447 123.999L153.724 122.936L175.001 124ZM97.5303 115.538L117.807 122.073L96.9795 117.594L76.7041 111.059L97.5303 115.538ZM153.021 117.594L132.193 122.072L152.47 115.538L173.296 111.06L153.021 117.594ZM100.656 108.717L118.55 120.276L99.5928 110.56L81.6992 98.999L100.656 108.717ZM150.407 110.56L131.449 120.275L149.344 108.717L168.302 99L150.407 110.56ZM105.441 102.937L119.733 118.734L103.938 104.441L89.6455 88.6445L105.441 102.937ZM146.062 104.441L130.266 118.733L144.559 102.937L160.355 88.6445L146.062 104.441ZM111.56 98.5928L121.276 117.551L109.717 99.6562L100 80.6982L111.56 98.5928ZM140.283 99.6562L128.723 117.55L138.44 98.5928L150 80.6992L140.283 99.6562ZM118.594 95.9795L123.072 116.807L116.538 96.5303L112.06 75.7031L118.594 95.9795ZM133.462 96.5303L126.927 116.807L131.406 95.9795L137.941 75.7041L133.462 96.5303ZM126.064 95.2764L125 116.553L123.937 95.2764L125.001 74L126.064 95.2764Z" fill="#1D3960"/>
<path d="M126.064 152.724L128.062 152.824L128.067 152.724L128.062 152.624L126.064 152.724ZM125 174L123.002 174.1L126.998 174.1L125 174ZM123.937 152.724L121.939 152.624L121.934 152.724L121.939 152.823L123.937 152.724ZM125.001 131.447L126.998 131.347L123.003 131.347L125.001 131.447ZM118.594 152.021L120.497 152.634L120.528 152.539L120.549 152.441L118.594 152.021ZM112.059 172.296L110.103 171.875L113.962 172.909L112.059 172.296ZM116.538 151.47L114.635 150.856L114.604 150.951L114.583 151.049L116.538 151.47ZM123.073 131.193L125.029 131.614L121.17 130.58L123.073 131.193ZM133.462 151.47L135.417 151.049L135.396 150.951L135.366 150.856L133.462 151.47ZM137.94 172.296L136.037 172.909L139.896 171.875L137.94 172.296ZM131.406 152.021L129.451 152.441L129.472 152.539L129.503 152.634L131.406 152.021ZM126.928 131.193L128.831 130.58L124.972 131.614L126.928 131.193ZM140.283 148.344L142.063 147.432L142.017 147.343L141.963 147.259L140.283 148.344ZM150 167.302L148.32 168.387L151.78 166.39L150 167.302ZM138.44 149.407L136.661 150.319L136.706 150.408L136.76 150.492L138.44 149.407ZM128.724 130.449L130.404 129.364L126.944 131.361L128.724 130.449ZM111.56 149.407L113.239 150.493L113.294 150.409L113.339 150.319L111.56 149.407ZM99.999 167.301L98.2192 166.388L101.679 168.386L99.999 167.301ZM109.717 148.344L108.037 147.259L107.983 147.342L107.937 147.431L109.717 148.344ZM121.276 130.449L123.056 131.361L119.596 129.364L121.276 130.449ZM146.063 143.559L147.547 142.217L147.479 142.143L147.405 142.076L146.063 143.559ZM160.355 159.355L159.014 160.839L161.839 158.014L160.355 159.355ZM144.559 145.062L143.076 146.404L143.143 146.478L143.217 146.546L144.559 145.062ZM130.267 129.266L131.608 127.783L128.784 130.607L130.267 129.266ZM105.441 145.062L106.783 146.546L106.857 146.479L106.924 146.404L105.441 145.062ZM89.6445 159.354L88.1615 158.013L90.9863 160.838L89.6445 159.354ZM103.937 143.559L102.595 142.075L102.521 142.143L102.453 142.217L103.937 143.559ZM119.734 129.267L121.217 130.609L118.393 127.783L119.734 129.267ZM150.407 137.44L151.493 135.76L151.409 135.706L151.32 135.661L150.407 137.44ZM168.301 149L167.389 150.78L169.386 147.32L168.301 149ZM149.344 139.283L148.258 140.963L148.342 141.017L148.431 141.063L149.344 139.283ZM131.45 127.723L132.363 125.943L130.365 129.403L131.45 127.723ZM100.656 139.283L101.568 141.063L101.657 141.017L101.741 140.963L100.656 139.283ZM81.6982 148.999L80.6131 147.319L82.6104 150.779L81.6982 148.999ZM99.5928 137.44L98.6805 135.661L98.5916 135.706L98.5076 135.76L99.5928 137.44ZM118.551 127.724L119.636 129.404L117.639 125.944L118.551 127.724ZM153.021 130.406L153.634 128.503L153.539 128.472L153.441 128.451L153.021 130.406ZM173.296 136.941L172.875 138.897L173.909 135.038L173.296 136.941ZM152.47 132.462L151.856 134.365L151.951 134.396L152.049 134.417L152.47 132.462ZM132.193 125.927L132.614 123.971L131.58 127.83L132.193 125.927ZM97.5303 132.462L97.9507 134.417L98.0485 134.396L98.1437 134.366L97.5303 132.462ZM76.7031 136.94L76.0897 135.037L77.1236 138.896L76.7031 136.94ZM96.9795 130.406L96.559 128.451L96.4612 128.472L96.366 128.503L96.9795 130.406ZM117.807 125.928L118.42 127.831L117.386 123.972L117.807 125.928ZM117.553 124L117.653 125.998L117.653 122.002L117.553 124ZM96.2764 125.063L96.1764 127.061L96.2763 127.066L96.3762 127.061L96.2764 125.063ZM75 123.999L74.9002 122.002L74.9001 125.997L75 123.999ZM96.2764 122.936L96.3763 120.938L96.2764 120.933L96.1765 120.938L96.2764 122.936ZM175.001 124L175.101 125.998L175.101 122.002L175.001 124ZM153.724 125.063L153.624 127.061L153.724 127.066L153.823 127.061L153.724 125.063ZM132.447 123.999L132.347 122.002L132.347 125.997L132.447 123.999ZM153.724 122.936L153.824 120.938L153.724 120.933L153.624 120.938L153.724 122.936ZM97.5303 115.538L98.1438 113.635L98.0486 113.604L97.9508 113.583L97.5303 115.538ZM117.807 122.073L117.386 124.029L118.42 120.17L117.807 122.073ZM96.9795 117.594L96.3659 119.497L96.4611 119.528L96.559 119.549L96.9795 117.594ZM76.7041 111.059L77.1247 109.103L76.0905 112.962L76.7041 111.059ZM153.021 117.594L153.441 119.549L153.539 119.528L153.634 119.497L153.021 117.594ZM132.193 122.072L131.58 120.169L132.614 124.028L132.193 122.072ZM152.47 115.538L152.049 113.583L151.951 113.604L151.856 113.634L152.47 115.538ZM173.296 111.06L173.909 112.963L172.875 109.104L173.296 111.06ZM100.656 108.717L101.742 107.037L101.658 106.983L101.569 106.937L100.656 108.717ZM118.55 120.276L117.638 122.056L119.635 118.596L118.55 120.276ZM99.5928 110.56L98.5074 112.239L98.5915 112.294L98.6805 112.339L99.5928 110.56ZM81.6992 98.999L82.6116 97.2192L80.6139 100.679L81.6992 98.999ZM150.407 110.56L151.319 112.339L151.408 112.294L151.492 112.24L150.407 110.56ZM131.449 120.275L130.364 118.595L132.361 122.055L131.449 120.275ZM149.344 108.717L148.432 106.937L148.343 106.983L148.259 107.037L149.344 108.717ZM168.302 99L169.387 100.68L167.39 97.2202L168.302 99ZM105.441 102.937L106.925 101.595L106.857 101.521L106.783 101.453L105.441 102.937ZM119.733 118.734L118.391 120.217L121.217 117.393L119.733 118.734ZM103.938 104.441L102.454 105.783L102.521 105.857L102.596 105.924L103.938 104.441ZM89.6455 88.6445L90.9874 87.1615L88.1624 89.9863L89.6455 88.6445ZM146.062 104.441L147.404 105.924L147.478 105.857L147.546 105.783L146.062 104.441ZM130.266 118.733L128.783 117.392L131.607 120.216L130.266 118.733ZM144.559 102.937L143.217 101.453L143.143 101.521L143.076 101.595L144.559 102.937ZM160.355 88.6445L161.839 89.9864L159.014 87.1614L160.355 88.6445ZM111.56 98.5928L113.339 97.6805L113.294 97.5915L113.24 97.5075L111.56 98.5928ZM121.276 117.551L119.596 118.636L123.056 116.639L121.276 117.551ZM109.717 99.6562L107.937 100.568L107.983 100.657L108.037 100.741L109.717 99.6562ZM100 80.6982L101.68 79.613L98.2202 81.6105L100 80.6982ZM140.283 99.6562L141.963 100.742L142.017 100.658L142.063 100.569L140.283 99.6562ZM128.723 117.55L126.943 116.637L130.403 118.635L128.723 117.55ZM138.44 98.5928L136.76 97.5075L136.706 97.5915L136.661 97.6804L138.44 98.5928ZM150 80.6992L151.78 81.6115L148.32 79.6139L150 80.6992ZM118.594 95.9795L120.549 95.559L120.528 95.4612L120.497 95.366L118.594 95.9795ZM123.072 116.807L121.169 117.42L125.028 116.386L123.072 116.807ZM116.538 96.5303L114.583 96.9507L114.604 97.0485L114.634 97.1437L116.538 96.5303ZM112.06 75.7031L113.963 75.0897L110.104 76.1236L112.06 75.7031ZM133.462 96.5303L135.365 97.1438L135.396 97.0486L135.417 96.9508L133.462 96.5303ZM126.927 116.807L124.971 116.386L128.83 117.42L126.927 116.807ZM131.406 95.9795L129.503 95.3659L129.472 95.4611L129.451 95.559L131.406 95.9795ZM137.941 75.7041L139.897 76.1247L136.038 75.0905L137.941 75.7041ZM126.064 95.2764L128.062 95.3763L128.067 95.2764L128.062 95.1765L126.064 95.2764ZM125 116.553L123.002 116.653L126.998 116.653L125 116.553ZM123.937 95.2764L121.939 95.1764L121.934 95.2763L121.939 95.3762L123.937 95.2764ZM125.001 74L126.998 73.9002L123.003 73.9001L125.001 74ZM126.064 152.724L124.067 152.624L123.002 173.9L125 174L126.998 174.1L128.062 152.824L126.064 152.724ZM125 174L126.998 173.9L125.934 152.624L123.937 152.724L121.939 152.823L123.002 174.1L125 174ZM123.937 152.724L125.934 152.824L126.998 131.547L125.001 131.447L123.003 131.347L121.939 152.624L123.937 152.724ZM125.001 131.447L123.003 131.547L124.067 152.823L126.064 152.724L128.062 152.624L126.998 131.347L125.001 131.447ZM118.594 152.021L116.69 151.407L110.155 171.682L112.059 172.296L113.962 172.909L120.497 152.634L118.594 152.021ZM112.059 172.296L114.014 172.716L118.493 151.89L116.538 151.47L114.583 151.049L110.103 171.875L112.059 172.296ZM116.538 151.47L118.442 152.083L124.977 131.807L123.073 131.193L121.17 130.58L114.635 150.856L116.538 151.47ZM123.073 131.193L121.118 130.773L116.638 151.6L118.594 152.021L120.549 152.441L125.029 131.614L123.073 131.193ZM133.462 151.47L131.507 151.89L135.985 172.716L137.94 172.296L139.896 171.875L135.417 151.049L133.462 151.47ZM137.94 172.296L139.844 171.682L133.31 151.407L131.406 152.021L129.503 152.634L136.037 172.909L137.94 172.296ZM131.406 152.021L133.362 151.6L128.883 130.773L126.928 131.193L124.972 131.614L129.451 152.441L131.406 152.021ZM126.928 131.193L125.024 131.807L131.558 152.083L133.462 151.47L135.366 150.856L128.831 130.58L126.928 131.193ZM140.283 148.344L138.503 149.256L148.22 168.214L150 167.302L151.78 166.39L142.063 147.432L140.283 148.344ZM150 167.302L151.68 166.217L140.12 148.322L138.44 149.407L136.76 150.492L148.32 168.387L150 167.302ZM138.44 149.407L140.22 148.495L130.503 129.537L128.724 130.449L126.944 131.361L136.661 150.319L138.44 149.407ZM128.724 130.449L127.044 131.534L138.603 149.429L140.283 148.344L141.963 147.259L130.404 129.364L128.724 130.449ZM111.56 149.407L109.88 148.322L98.3191 166.215L99.999 167.301L101.679 168.386L113.239 150.493L111.56 149.407ZM99.999 167.301L101.779 168.213L111.497 149.256L109.717 148.344L107.937 147.431L98.2192 166.388L99.999 167.301ZM109.717 148.344L111.397 149.429L122.956 131.534L121.276 130.449L119.596 129.364L108.037 147.259L109.717 148.344ZM121.276 130.449L119.497 129.537L109.78 148.495L111.56 149.407L113.339 150.319L123.056 131.361L121.276 130.449ZM146.063 143.559L144.58 144.9L158.872 160.697L160.355 159.355L161.839 158.014L147.547 142.217L146.063 143.559ZM160.355 159.355L161.697 157.872L145.9 143.579L144.559 145.062L143.217 146.546L159.014 160.839L160.355 159.355ZM144.559 145.062L146.042 143.721L131.75 127.924L130.267 129.266L128.784 130.607L143.076 146.404L144.559 145.062ZM130.267 129.266L128.925 130.749L144.722 145.042L146.063 143.559L147.405 142.076L131.608 127.783L130.267 129.266ZM105.441 145.062L104.1 143.579L88.3027 157.871L89.6445 159.354L90.9863 160.838L106.783 146.546L105.441 145.062ZM89.6445 159.354L91.1276 160.696L105.42 144.9L103.937 143.559L102.453 142.217L88.1615 158.013L89.6445 159.354ZM103.937 143.559L105.278 145.042L121.076 130.75L119.734 129.267L118.393 127.783L102.595 142.075L103.937 143.559ZM119.734 129.267L118.251 127.925L103.958 143.721L105.441 145.062L106.924 146.404L121.217 130.609L119.734 129.267ZM150.407 137.44L149.322 139.12L167.216 150.68L168.301 149L169.386 147.32L151.493 135.76L150.407 137.44ZM168.301 149L169.213 147.22L150.256 137.503L149.344 139.283L148.431 141.063L167.389 150.78L168.301 149ZM149.344 139.283L150.429 137.603L132.536 126.043L131.45 127.723L130.365 129.403L148.258 140.963L149.344 139.283ZM131.45 127.723L130.538 129.502L149.495 139.22L150.407 137.44L151.32 135.661L132.363 125.943L131.45 127.723ZM100.656 139.283L99.7441 137.503L80.7861 147.219L81.6982 148.999L82.6104 150.779L101.568 141.063L100.656 139.283ZM81.6982 148.999L82.7834 150.679L100.678 139.12L99.5928 137.44L98.5076 135.76L80.6131 147.319L81.6982 148.999ZM99.5928 137.44L100.505 139.22L119.463 129.503L118.551 127.724L117.639 125.944L98.6805 135.661L99.5928 137.44ZM118.551 127.724L117.466 126.044L99.571 137.603L100.656 139.283L101.741 140.963L119.636 129.404L118.551 127.724ZM153.021 130.406L152.407 132.31L172.682 138.845L173.296 136.941L173.909 135.038L153.634 128.503L153.021 130.406ZM173.296 136.941L173.716 134.986L152.89 130.507L152.47 132.462L152.049 134.417L172.875 138.897L173.296 136.941ZM152.47 132.462L153.083 130.558L132.807 124.023L132.193 125.927L131.58 127.83L151.856 134.365L152.47 132.462ZM132.193 125.927L131.773 127.882L152.6 132.362L153.021 130.406L153.441 128.451L132.614 123.971L132.193 125.927ZM97.5303 132.462L97.1098 130.507L76.2827 134.985L76.7031 136.94L77.1236 138.896L97.9507 134.417L97.5303 132.462ZM76.7031 136.94L77.3166 138.844L97.5929 132.31L96.9795 130.406L96.366 128.503L76.0897 135.037L76.7031 136.94ZM96.9795 130.406L97.3999 132.362L118.227 127.883L117.807 125.928L117.386 123.972L96.559 128.451L96.9795 130.406ZM117.807 125.928L117.193 124.024L96.9168 130.558L97.5303 132.462L98.1437 134.366L118.42 127.831L117.807 125.928ZM117.553 124L117.453 122.002L96.1765 123.066L96.2764 125.063L96.3762 127.061L117.653 125.998L117.553 124ZM96.2764 125.063L96.3763 123.066L75.0999 122.002L75 123.999L74.9001 125.997L96.1764 127.061L96.2764 125.063ZM75 123.999L75.0998 125.997L96.3762 124.933L96.2764 122.936L96.1765 120.938L74.9002 122.002L75 123.999ZM96.2764 122.936L96.1764 124.933L117.453 125.998L117.553 124L117.653 122.002L96.3763 120.938L96.2764 122.936ZM175.001 124L174.901 122.002L153.624 123.066L153.724 125.063L153.823 127.061L175.101 125.998L175.001 124ZM153.724 125.063L153.824 123.066L132.547 122.002L132.447 123.999L132.347 125.997L153.624 127.061L153.724 125.063ZM132.447 123.999L132.547 125.997L153.823 124.933L153.724 122.936L153.624 120.938L132.347 122.002L132.447 123.999ZM153.724 122.936L153.624 124.933L174.901 125.998L175.001 124L175.101 122.002L153.824 120.938L153.724 122.936ZM97.5303 115.538L96.9167 117.442L117.193 123.977L117.807 122.073L118.42 120.17L98.1438 113.635L97.5303 115.538ZM117.807 122.073L118.227 120.118L97.4 115.638L96.9795 117.594L96.559 119.549L117.386 124.029L117.807 122.073ZM96.9795 117.594L97.593 115.69L77.3177 109.155L76.7041 111.059L76.0905 112.962L96.3659 119.497L96.9795 117.594ZM76.7041 111.059L76.2835 113.014L97.1097 117.493L97.5303 115.538L97.9508 113.583L77.1247 109.103L76.7041 111.059ZM153.021 117.594L152.6 115.638L131.773 120.117L132.193 122.072L132.614 124.028L153.441 119.549L153.021 117.594ZM132.193 122.072L132.807 123.976L153.083 117.442L152.47 115.538L151.856 113.634L131.58 120.169L132.193 122.072ZM152.47 115.538L152.89 117.493L173.716 113.015L173.296 111.06L172.875 109.104L152.049 113.583L152.47 115.538ZM173.296 111.06L172.682 109.156L152.407 115.69L153.021 117.594L153.634 119.497L173.909 112.963L173.296 111.06ZM100.656 108.717L99.571 110.397L117.465 121.956L118.55 120.276L119.635 118.596L101.742 107.037L100.656 108.717ZM118.55 120.276L119.462 118.497L100.505 108.78L99.5928 110.56L98.6805 112.339L117.638 122.056L118.55 120.276ZM99.5928 110.56L100.678 108.88L82.7846 97.3191L81.6992 98.999L80.6139 100.679L98.5074 112.239L99.5928 110.56ZM81.6992 98.999L80.7869 100.779L99.7439 110.497L100.656 108.717L101.569 106.937L82.6116 97.2192L81.6992 98.999ZM150.407 110.56L149.495 108.78L130.537 118.496L131.449 120.275L132.361 122.055L151.319 112.339L150.407 110.56ZM131.449 120.275L132.534 121.955L150.429 110.397L149.344 108.717L148.259 107.037L130.364 118.595L131.449 120.275ZM149.344 108.717L150.256 110.497L169.214 100.78L168.302 99L167.39 97.2202L148.432 106.937L149.344 108.717ZM168.302 99L167.217 97.32L149.322 108.88L150.407 110.56L151.492 112.24L169.387 100.68L168.302 99ZM105.441 102.937L103.958 104.278L118.25 120.076L119.733 118.734L121.217 117.393L106.925 101.595L105.441 102.937ZM119.733 118.734L121.075 117.251L105.279 102.958L103.938 104.441L102.596 105.924L118.391 120.217L119.733 118.734ZM103.938 104.441L105.421 103.1L91.1286 87.3027L89.6455 88.6445L88.1624 89.9863L102.454 105.783L103.938 104.441ZM89.6455 88.6445L88.3037 90.1276L104.1 104.42L105.441 102.937L106.783 101.453L90.9874 87.1615L89.6455 88.6445ZM146.062 104.441L144.721 102.958L128.924 117.25L130.266 118.733L131.607 120.216L147.404 105.924L146.062 104.441ZM130.266 118.733L131.749 120.075L146.042 104.278L144.559 102.937L143.076 101.595L128.783 117.392L130.266 118.733ZM144.559 102.937L145.9 104.42L161.697 90.1276L160.355 88.6445L159.014 87.1614L143.217 101.453L144.559 102.937ZM160.355 88.6445L158.872 87.3027L144.579 103.1L146.062 104.441L147.546 105.783L161.839 89.9864L160.355 88.6445ZM111.56 98.5928L109.78 99.505L119.497 118.463L121.276 117.551L123.056 116.639L113.339 97.6805L111.56 98.5928ZM121.276 117.551L122.956 116.466L111.397 98.571L109.717 99.6562L108.037 100.741L119.596 118.636L121.276 117.551ZM109.717 99.6562L111.497 98.744L101.78 79.786L100 80.6982L98.2202 81.6105L107.937 100.568L109.717 99.6562ZM100 80.6982L98.32 81.7835L109.88 99.678L111.56 98.5928L113.24 97.5075L101.68 79.613L100 80.6982ZM140.283 99.6562L138.603 98.5709L127.043 116.464L128.723 117.55L130.403 118.635L141.963 100.742L140.283 99.6562ZM128.723 117.55L130.502 118.462L140.22 99.5051L138.44 98.5928L136.661 97.6804L126.943 116.637L128.723 117.55ZM138.44 98.5928L140.12 99.678L151.68 81.7845L150 80.6992L148.32 79.6139L136.76 97.5075L138.44 98.5928ZM150 80.6992L148.22 79.7869L138.503 98.744L140.283 99.6562L142.063 100.569L151.78 81.6115L150 80.6992ZM118.594 95.9795L116.638 96.3999L121.117 117.227L123.072 116.807L125.028 116.386L120.549 95.559L118.594 95.9795ZM123.072 116.807L124.976 116.193L118.442 95.9168L116.538 96.5303L114.634 97.1437L121.169 117.42L123.072 116.807ZM116.538 96.5303L118.493 96.1098L114.015 75.2827L112.06 75.7031L110.104 76.1236L114.583 96.9507L116.538 96.5303ZM112.06 75.7031L110.156 76.3166L116.69 96.5929L118.594 95.9795L120.497 95.366L113.963 75.0897L112.06 75.7031ZM133.462 96.5303L131.558 95.9167L125.023 116.193L126.927 116.807L128.83 117.42L135.365 97.1438L133.462 96.5303ZM126.927 116.807L128.882 117.227L133.362 96.4L131.406 95.9795L129.451 95.559L124.971 116.386L126.927 116.807ZM131.406 95.9795L133.31 96.593L139.845 76.3177L137.941 75.7041L136.038 75.0905L129.503 95.3659L131.406 95.9795ZM137.941 75.7041L135.986 75.2835L131.507 96.1097L133.462 96.5303L135.417 96.9508L139.897 76.1247L137.941 75.7041ZM126.064 95.2764L124.067 95.1764L123.002 116.453L125 116.553L126.998 116.653L128.062 95.3763L126.064 95.2764ZM125 116.553L126.998 116.453L125.934 95.1765L123.937 95.2764L121.939 95.3762L123.002 116.653L125 116.553ZM123.937 95.2764L125.934 95.3763L126.998 74.0999L125.001 74L123.003 73.9001L121.939 95.1764L123.937 95.2764ZM125.001 74L123.003 74.0998L124.067 95.3762L126.064 95.2764L128.062 95.1765L126.998 73.9002L125.001 74Z" fill="white" mask="url(#path-10-outside-1_7_118)"/>
<mask id="path-12-inside-2_7_118" fill="white">
<path d="M119.003 177C119.003 175.895 119.898 175 121.003 175H128.15C129.255 175 130.15 175.895 130.15 177V186.451C130.15 186.802 130.058 187.146 129.883 187.45L126.328 193.616C125.56 194.947 123.641 194.952 122.867 193.624L119 186.988C119 186.988 119 186.986 119.002 186.986C119.002 186.986 119.003 186.986 119.003 186.985V177Z"/>
</mask>
<path d="M119.003 177C119.003 175.895 119.898 175 121.003 175H128.15C129.255 175 130.15 175.895 130.15 177V186.451C130.15 186.802 130.058 187.146 129.883 187.45L126.328 193.616C125.56 194.947 123.641 194.952 122.867 193.624L119 186.988C119 186.988 119 186.986 119.002 186.986C119.002 186.986 119.003 186.986 119.003 186.985V177Z" fill="#FF9900"/>
<path d="M119 186.988L119.864 186.485L119 186.988ZM122.867 193.624L123.731 193.121L122.867 193.624ZM121.003 175V176H128.15V175V174H121.003V175ZM130.15 177H129.15V186.451H130.15H131.15V177H130.15ZM129.883 187.45L129.017 186.951L125.462 193.117L126.328 193.616L127.194 194.116L130.749 187.949L129.883 187.45ZM122.867 193.624L123.731 193.121L119.864 186.485L119 186.988L118.136 187.492L122.003 194.128L122.867 193.624ZM119.003 186.985H120.003V177H119.003H118.003V186.985H119.003ZM119.002 186.986V187.986C119.555 187.986 120.003 187.538 120.003 186.985H119.003H118.003C118.003 186.433 118.45 185.986 119.002 185.986V186.986ZM119 186.988L119.864 186.485C120.252 187.151 119.772 187.986 119.002 187.986V186.986V185.986C118.229 185.986 117.747 186.824 118.136 187.492L119 186.988ZM126.328 193.616L125.462 193.117C125.078 193.782 124.118 193.785 123.731 193.121L122.867 193.624L122.003 194.128C123.164 196.119 126.043 196.112 127.194 194.116L126.328 193.616ZM130.15 186.451H129.15C129.15 186.626 129.104 186.799 129.017 186.951L129.883 187.45L130.749 187.949C131.012 187.494 131.15 186.977 131.15 186.451H130.15ZM128.15 175V176C128.703 176 129.15 176.448 129.15 177H130.15H131.15C131.15 175.343 129.807 174 128.15 174V175ZM121.003 175V174C119.346 174 118.003 175.343 118.003 177H119.003H120.003C120.003 176.448 120.451 176 121.003 176V175Z" fill="white" mask="url(#path-12-inside-2_7_118)"/>
<mask id="path-14-inside-3_7_118" fill="white">
<path d="M71.6173 118.003C72.7219 118.003 73.6173 118.898 73.6173 120.003V127.15C73.6173 128.255 72.7219 129.15 71.6173 129.15H62.1663C61.8156 129.15 61.4711 129.058 61.1673 128.883L55.001 125.328C53.6699 124.56 53.6654 122.641 54.993 121.867L61.6289 118C61.6298 118 61.631 118 61.631 118.001C61.631 118.002 61.6316 118.003 61.6324 118.003H71.6173Z"/>
</mask>
<path d="M71.6173 118.003C72.7219 118.003 73.6173 118.898 73.6173 120.003V127.15C73.6173 128.255 72.7219 129.15 71.6173 129.15H62.1663C61.8156 129.15 61.4711 129.058 61.1673 128.883L55.001 125.328C53.6699 124.56 53.6654 122.641 54.993 121.867L61.6289 118C61.6298 118 61.631 118 61.631 118.001C61.631 118.002 61.6316 118.003 61.6324 118.003H71.6173Z" fill="#FF9900"/>
<path d="M61.6289 118L62.1323 118.864L61.6289 118ZM54.993 121.867L55.4965 122.731L54.993 121.867ZM73.6173 120.003H72.6173V127.15H73.6173H74.6173V120.003H73.6173ZM71.6173 129.15V128.15H62.1663V129.15V130.15H71.6173V129.15ZM61.1673 128.883L61.6668 128.017L55.5005 124.462L55.001 125.328L54.5016 126.194L60.6678 129.749L61.1673 128.883ZM54.993 121.867L55.4965 122.731L62.1323 118.864L61.6289 118L61.1254 117.136L54.4895 121.003L54.993 121.867ZM61.6324 118.003V119.003H71.6173V118.003V117.003H61.6324V118.003ZM61.631 118.001H60.631C60.631 118.555 61.0794 119.003 61.6324 119.003V118.003V117.003C62.1839 117.003 62.631 117.45 62.631 118.001H61.631ZM61.6289 118L62.1323 118.864C61.4665 119.252 60.631 118.772 60.631 118.001H61.631H62.631C62.631 117.229 61.7932 116.747 61.1254 117.136L61.6289 118ZM55.001 125.328L55.5005 124.462C54.8349 124.078 54.8327 123.118 55.4965 122.731L54.993 121.867L54.4895 121.003C52.4982 122.164 52.5048 125.043 54.5016 126.194L55.001 125.328ZM62.1663 129.15V128.15C61.9909 128.15 61.8187 128.104 61.6668 128.017L61.1673 128.883L60.6678 129.749C61.1235 130.012 61.6403 130.15 62.1663 130.15V129.15ZM73.6173 127.15H72.6173C72.6173 127.703 72.1696 128.15 71.6173 128.15V129.15V130.15C73.2742 130.15 74.6173 128.807 74.6173 127.15H73.6173ZM73.6173 120.003H74.6173C74.6173 118.346 73.2742 117.003 71.6173 117.003V118.003V119.003C72.1696 119.003 72.6173 119.451 72.6173 120.003H73.6173Z" fill="white" mask="url(#path-14-inside-3_7_118)"/>
<mask id="path-16-inside-4_7_118" fill="white">
<path d="M178 130.147C176.895 130.147 176 129.252 176 128.147V121C176 119.895 176.895 119 178 119H187.451C187.802 119 188.146 119.092 188.45 119.267L194.616 122.822C195.947 123.59 195.952 125.51 194.624 126.283L187.988 130.15C187.987 130.151 187.986 130.15 187.986 130.149C187.986 130.148 187.986 130.147 187.985 130.147H178Z"/>
</mask>
<path d="M178 130.147C176.895 130.147 176 129.252 176 128.147V121C176 119.895 176.895 119 178 119H187.451C187.802 119 188.146 119.092 188.45 119.267L194.616 122.822C195.947 123.59 195.952 125.51 194.624 126.283L187.988 130.15C187.987 130.151 187.986 130.15 187.986 130.149C187.986 130.148 187.986 130.147 187.985 130.147H178Z" fill="#FF9900"/>
<path d="M187.988 130.15L187.485 129.286L187.988 130.15ZM194.616 122.822L195.116 121.956L194.616 122.822ZM176 128.147H177V121H176H175V128.147H176ZM178 119V120H187.451V119V118H178V119ZM188.45 119.267L187.95 120.134L194.117 123.689L194.616 122.822L195.116 121.956L188.949 118.401L188.45 119.267ZM194.624 126.283L194.121 125.419L187.485 129.286L187.988 130.15L188.492 131.014L195.128 127.147L194.624 126.283ZM187.985 130.147V129.147H178V130.147V131.147H187.985V130.147ZM187.986 130.149H188.986C188.986 129.596 188.538 129.147 187.985 129.147V130.147V131.147C187.433 131.147 186.986 130.7 186.986 130.149H187.986ZM187.988 130.15L187.485 129.286C188.151 128.898 188.986 129.379 188.986 130.149H187.986H186.986C186.986 130.921 187.824 131.403 188.492 131.014L187.988 130.15ZM194.616 122.822L194.117 123.689C194.782 124.073 194.784 125.032 194.121 125.419L194.624 126.283L195.128 127.147C197.119 125.987 197.112 123.107 195.116 121.956L194.616 122.822ZM187.451 119V120C187.626 120 187.799 120.046 187.95 120.134L188.45 119.267L188.949 118.401C188.494 118.138 187.977 118 187.451 118V119ZM176 121H177C177 120.448 177.448 120 178 120V119V118C176.343 118 175 119.343 175 121H176ZM176 128.147H175C175 129.804 176.343 131.147 178 131.147V130.147V129.147C177.448 129.147 177 128.7 177 128.147H176Z" fill="white" mask="url(#path-16-inside-4_7_118)"/>
<mask id="path-18-inside-5_7_118" fill="white">
<path d="M130.147 70.6173C130.147 71.7219 129.252 72.6173 128.147 72.6173H121C119.895 72.6173 119 71.7219 119 70.6173V61.1663C119 60.8156 119.092 60.4711 119.267 60.1673L122.822 54.001C123.59 52.6699 125.51 52.6654 126.283 53.993L130.15 60.6289C130.151 60.6298 130.15 60.631 130.149 60.631C130.148 60.631 130.147 60.6316 130.147 60.6324V70.6173Z"/>
</mask>
<path d="M130.147 70.6173C130.147 71.7219 129.252 72.6173 128.147 72.6173H121C119.895 72.6173 119 71.7219 119 70.6173V61.1663C119 60.8156 119.092 60.4711 119.267 60.1673L122.822 54.001C123.59 52.6699 125.51 52.6654 126.283 53.993L130.15 60.6289C130.151 60.6298 130.15 60.631 130.149 60.631C130.148 60.631 130.147 60.6316 130.147 60.6324V70.6173Z" fill="#FF9900"/>
<path d="M130.15 60.6289L129.286 61.1323L130.15 60.6289ZM126.283 53.993L125.419 54.4965L126.283 53.993ZM128.147 72.6173V71.6173H121V72.6173V73.6173H128.147V72.6173ZM119 70.6173H120V61.1663H119H118V70.6173H119ZM119.267 60.1673L120.134 60.6668L123.689 54.5005L122.822 54.001L121.956 53.5016L118.401 59.6678L119.267 60.1673ZM126.283 53.993L125.419 54.4965L129.286 61.1323L130.15 60.6289L131.014 60.1254L127.147 53.4895L126.283 53.993ZM130.147 60.6324H129.147V70.6173H130.147H131.147V60.6324H130.147ZM130.149 60.631V59.631C129.596 59.631 129.147 60.0794 129.147 60.6324H130.147H131.147C131.147 61.1839 130.7 61.631 130.149 61.631V60.631ZM130.15 60.6289L129.286 61.1323C128.898 60.4665 129.379 59.631 130.149 59.631V60.631V61.631C130.921 61.631 131.403 60.7932 131.014 60.1254L130.15 60.6289ZM122.822 54.001L123.689 54.5005C124.073 53.8349 125.032 53.8327 125.419 54.4965L126.283 53.993L127.147 53.4895C125.987 51.4982 123.107 51.5048 121.956 53.5016L122.822 54.001ZM119 61.1663H120C120 60.9909 120.046 60.8187 120.134 60.6668L119.267 60.1673L118.401 59.6678C118.138 60.1235 118 60.6403 118 61.1663H119ZM121 72.6173V71.6173C120.448 71.6173 120 71.1696 120 70.6173H119H118C118 72.2742 119.343 73.6173 121 73.6173V72.6173ZM128.147 72.6173V73.6173C129.804 73.6173 131.147 72.2742 131.147 70.6173H130.147H129.147C129.147 71.1696 128.7 71.6173 128.147 71.6173V72.6173Z" fill="white" mask="url(#path-18-inside-5_7_118)"/>
</svg>
