<svg width="244" height="274" viewBox="0 0 244 274" fill="none" xmlns="http://www.w3.org/2000/svg">
<circle cx="122" cy="114" r="100" fill="#1D3960"/>
<path d="M212 114C212 163.706 171.706 204 122 204C72.2944 204 32 163.706 32 114C32 64.2944 72.2944 24 122 24C171.706 24 212 64.2944 212 114Z" fill="white"/>
<circle cx="122" cy="114" r="80" fill="#23A585"/>
<circle cx="122" cy="114" r="70" fill="white"/>
<circle cx="122" cy="114" r="60" fill="#1D3960"/>
<circle cx="122" cy="114" r="55" fill="white"/>
<circle cx="122" cy="114" r="40" fill="#23A585"/>
<circle cx="122" cy="114" r="35" fill="white"/>
<path d="M127 114C127 116.761 124.761 119 122 119C119.239 119 117 116.761 117 114C117 111.239 119.239 109 122 109C124.761 109 127 111.239 127 114Z" fill="#23A585"/>
<mask id="path-10-outside-1_7_2" maskUnits="userSpaceOnUse" x="71" y="62" width="102" height="102" fill="black">
<rect fill="white" x="71" y="62" width="102" height="102"/>
<path d="M123.064 141.724L122 163L120.937 141.724L122.001 120.447L123.064 141.724ZM115.594 141.021L109.059 161.296L113.538 140.47L120.073 120.193L115.594 141.021ZM130.462 140.47L134.94 161.296L128.406 141.021L123.928 120.193L130.462 140.47ZM137.283 137.344L147 156.302L135.44 138.407L125.724 119.449L137.283 137.344ZM108.56 138.407L96.999 156.301L106.717 137.344L118.276 119.449L108.56 138.407ZM143.063 132.559L157.355 148.355L141.559 134.062L127.267 118.266L143.063 132.559ZM102.441 134.062L86.6445 148.354L100.937 132.559L116.734 118.267L102.441 134.062ZM147.407 126.44L165.301 138L146.344 128.283L128.45 116.723L147.407 126.44ZM97.6562 128.283L78.6982 137.999L96.5928 126.44L115.551 116.724L97.6562 128.283ZM150.021 119.406L170.296 125.941L149.47 121.462L129.193 114.927L150.021 119.406ZM94.5303 121.462L73.7031 125.94L93.9795 119.406L114.807 114.928L94.5303 121.462ZM114.553 113L93.2764 114.063L72 112.999L93.2764 111.936L114.553 113ZM172.001 113L150.724 114.063L129.447 112.999L150.724 111.936L172.001 113ZM94.5303 104.538L114.807 111.073L93.9795 106.594L73.7041 100.059L94.5303 104.538ZM150.021 106.594L129.193 111.072L149.47 104.538L170.296 100.06L150.021 106.594ZM97.6562 97.7168L115.55 109.276L96.5928 99.5596L78.6992 87.999L97.6562 97.7168ZM147.407 99.5596L128.449 109.275L146.344 97.7168L165.302 88L147.407 99.5596ZM102.441 91.9365L116.733 107.734L100.938 93.4414L86.6455 77.6445L102.441 91.9365ZM143.062 93.4414L127.266 107.733L141.559 91.9365L157.355 77.6445L143.062 93.4414ZM108.56 87.5928L118.276 106.551L106.717 88.6562L97 69.6982L108.56 87.5928ZM137.283 88.6562L125.723 106.55L135.44 87.5928L147 69.6992L137.283 88.6562ZM115.594 84.9795L120.072 105.807L113.538 85.5303L109.06 64.7031L115.594 84.9795ZM130.462 85.5303L123.927 105.807L128.406 84.9795L134.941 64.7041L130.462 85.5303ZM123.064 84.2764L122 105.553L120.937 84.2764L122.001 63L123.064 84.2764Z"/>
</mask>
<path d="M123.064 141.724L122 163L120.937 141.724L122.001 120.447L123.064 141.724ZM115.594 141.021L109.059 161.296L113.538 140.47L120.073 120.193L115.594 141.021ZM130.462 140.47L134.94 161.296L128.406 141.021L123.928 120.193L130.462 140.47ZM137.283 137.344L147 156.302L135.44 138.407L125.724 119.449L137.283 137.344ZM108.56 138.407L96.999 156.301L106.717 137.344L118.276 119.449L108.56 138.407ZM143.063 132.559L157.355 148.355L141.559 134.062L127.267 118.266L143.063 132.559ZM102.441 134.062L86.6445 148.354L100.937 132.559L116.734 118.267L102.441 134.062ZM147.407 126.44L165.301 138L146.344 128.283L128.45 116.723L147.407 126.44ZM97.6562 128.283L78.6982 137.999L96.5928 126.44L115.551 116.724L97.6562 128.283ZM150.021 119.406L170.296 125.941L149.47 121.462L129.193 114.927L150.021 119.406ZM94.5303 121.462L73.7031 125.94L93.9795 119.406L114.807 114.928L94.5303 121.462ZM114.553 113L93.2764 114.063L72 112.999L93.2764 111.936L114.553 113ZM172.001 113L150.724 114.063L129.447 112.999L150.724 111.936L172.001 113ZM94.5303 104.538L114.807 111.073L93.9795 106.594L73.7041 100.059L94.5303 104.538ZM150.021 106.594L129.193 111.072L149.47 104.538L170.296 100.06L150.021 106.594ZM97.6562 97.7168L115.55 109.276L96.5928 99.5596L78.6992 87.999L97.6562 97.7168ZM147.407 99.5596L128.449 109.275L146.344 97.7168L165.302 88L147.407 99.5596ZM102.441 91.9365L116.733 107.734L100.938 93.4414L86.6455 77.6445L102.441 91.9365ZM143.062 93.4414L127.266 107.733L141.559 91.9365L157.355 77.6445L143.062 93.4414ZM108.56 87.5928L118.276 106.551L106.717 88.6562L97 69.6982L108.56 87.5928ZM137.283 88.6562L125.723 106.55L135.44 87.5928L147 69.6992L137.283 88.6562ZM115.594 84.9795L120.072 105.807L113.538 85.5303L109.06 64.7031L115.594 84.9795ZM130.462 85.5303L123.927 105.807L128.406 84.9795L134.941 64.7041L130.462 85.5303ZM123.064 84.2764L122 105.553L120.937 84.2764L122.001 63L123.064 84.2764Z" fill="#1D3960"/>
<path d="M123.064 141.724L125.062 141.824L125.067 141.724L125.062 141.624L123.064 141.724ZM122 163L120.002 163.1L123.998 163.1L122 163ZM120.937 141.724L118.939 141.624L118.934 141.724L118.939 141.823L120.937 141.724ZM122.001 120.447L123.998 120.347L120.003 120.347L122.001 120.447ZM115.594 141.021L117.497 141.634L117.528 141.539L117.549 141.441L115.594 141.021ZM109.059 161.296L107.103 160.875L110.962 161.909L109.059 161.296ZM113.538 140.47L111.635 139.856L111.604 139.951L111.583 140.049L113.538 140.47ZM120.073 120.193L122.029 120.614L118.17 119.58L120.073 120.193ZM130.462 140.47L132.417 140.049L132.396 139.951L132.366 139.856L130.462 140.47ZM134.94 161.296L133.037 161.909L136.896 160.875L134.94 161.296ZM128.406 141.021L126.451 141.441L126.472 141.539L126.503 141.634L128.406 141.021ZM123.928 120.193L125.831 119.58L121.972 120.614L123.928 120.193ZM137.283 137.344L139.063 136.432L139.017 136.343L138.963 136.259L137.283 137.344ZM147 156.302L145.32 157.387L148.78 155.39L147 156.302ZM135.44 138.407L133.661 139.319L133.706 139.408L133.76 139.492L135.44 138.407ZM125.724 119.449L127.404 118.364L123.944 120.361L125.724 119.449ZM108.56 138.407L110.239 139.493L110.294 139.409L110.339 139.319L108.56 138.407ZM96.999 156.301L95.2192 155.388L98.6789 157.386L96.999 156.301ZM106.717 137.344L105.037 136.259L104.983 136.342L104.937 136.431L106.717 137.344ZM118.276 119.449L120.056 120.361L116.596 118.364L118.276 119.449ZM143.063 132.559L144.547 131.217L144.479 131.143L144.405 131.076L143.063 132.559ZM157.355 148.355L156.014 149.839L158.839 147.014L157.355 148.355ZM141.559 134.062L140.076 135.404L140.143 135.478L140.217 135.546L141.559 134.062ZM127.267 118.266L128.608 116.783L125.784 119.607L127.267 118.266ZM102.441 134.062L103.783 135.546L103.857 135.479L103.924 135.404L102.441 134.062ZM86.6445 148.354L85.1615 147.013L87.9863 149.838L86.6445 148.354ZM100.937 132.559L99.5948 131.075L99.5206 131.143L99.4535 131.217L100.937 132.559ZM116.734 118.267L118.217 119.609L115.393 116.783L116.734 118.267ZM147.407 126.44L148.493 124.76L148.409 124.706L148.32 124.661L147.407 126.44ZM165.301 138L164.389 139.78L166.386 136.32L165.301 138ZM146.344 128.283L145.258 129.963L145.342 130.017L145.431 130.063L146.344 128.283ZM128.45 116.723L129.363 114.943L127.365 118.403L128.45 116.723ZM97.6562 128.283L98.5684 130.063L98.6574 130.017L98.7415 129.963L97.6562 128.283ZM78.6982 137.999L77.6131 136.319L79.6104 139.779L78.6982 137.999ZM96.5928 126.44L95.6805 124.661L95.5916 124.706L95.5076 124.76L96.5928 126.44ZM115.551 116.724L116.636 118.404L114.639 114.944L115.551 116.724ZM150.021 119.406L150.634 117.503L150.539 117.472L150.441 117.451L150.021 119.406ZM170.296 125.941L169.875 127.897L170.909 124.038L170.296 125.941ZM149.47 121.462L148.856 123.365L148.951 123.396L149.049 123.417L149.47 121.462ZM129.193 114.927L129.614 112.971L128.58 116.83L129.193 114.927ZM94.5303 121.462L94.9507 123.417L95.0485 123.396L95.1437 123.366L94.5303 121.462ZM73.7031 125.94L73.0897 124.037L74.1236 127.896L73.7031 125.94ZM93.9795 119.406L93.559 117.451L93.4612 117.472L93.366 117.503L93.9795 119.406ZM114.807 114.928L115.42 116.831L114.386 112.972L114.807 114.928ZM114.553 113L114.653 114.998L114.653 111.002L114.553 113ZM93.2764 114.063L93.1764 116.061L93.2763 116.066L93.3762 116.061L93.2764 114.063ZM72 112.999L71.9002 111.002L71.9001 114.997L72 112.999ZM93.2764 111.936L93.3763 109.938L93.2764 109.933L93.1765 109.938L93.2764 111.936ZM172.001 113L172.101 114.998L172.101 111.002L172.001 113ZM150.724 114.063L150.624 116.061L150.724 116.066L150.823 116.061L150.724 114.063ZM129.447 112.999L129.347 111.002L129.347 114.997L129.447 112.999ZM150.724 111.936L150.824 109.938L150.724 109.933L150.624 109.938L150.724 111.936ZM94.5303 104.538L95.1438 102.635L95.0486 102.604L94.9508 102.583L94.5303 104.538ZM114.807 111.073L114.386 113.029L115.42 109.17L114.807 111.073ZM93.9795 106.594L93.3659 108.497L93.4611 108.528L93.559 108.549L93.9795 106.594ZM73.7041 100.059L74.1247 98.1033L73.0905 101.962L73.7041 100.059ZM150.021 106.594L150.441 108.549L150.539 108.528L150.634 108.497L150.021 106.594ZM129.193 111.072L128.58 109.169L129.614 113.028L129.193 111.072ZM149.47 104.538L149.049 102.583L148.951 102.604L148.856 102.634L149.47 104.538ZM170.296 100.06L170.909 101.963L169.875 98.1043L170.296 100.06ZM97.6562 97.7168L98.7415 96.0369L98.6576 95.9826L98.5686 95.937L97.6562 97.7168ZM115.55 109.276L114.638 111.056L116.635 107.596L115.55 109.276ZM96.5928 99.5596L95.5074 101.239L95.5915 101.294L95.6805 101.339L96.5928 99.5596ZM78.6992 87.999L79.6116 86.2192L77.6139 89.6789L78.6992 87.999ZM147.407 99.5596L148.319 101.339L148.408 101.294L148.492 101.24L147.407 99.5596ZM128.449 109.275L127.364 107.595L129.361 111.055L128.449 109.275ZM146.344 97.7168L145.432 95.937L145.343 95.9826L145.259 96.0368L146.344 97.7168ZM165.302 88L166.387 89.68L164.39 86.2202L165.302 88ZM102.441 91.9365L103.925 90.5948L103.857 90.5206L103.783 90.4535L102.441 91.9365ZM116.733 107.734L115.391 109.217L118.217 106.393L116.733 107.734ZM100.938 93.4414L99.4544 94.7832L99.5215 94.8573L99.5956 94.9244L100.938 93.4414ZM86.6455 77.6445L87.9874 76.1615L85.1624 78.9863L86.6455 77.6445ZM143.062 93.4414L144.404 94.9245L144.478 94.8574L144.546 94.7833L143.062 93.4414ZM127.266 107.733L125.783 106.392L128.607 109.216L127.266 107.733ZM141.559 91.9365L140.217 90.4534L140.143 90.5205L140.076 90.5947L141.559 91.9365ZM157.355 77.6445L158.839 78.9864L156.014 76.1614L157.355 77.6445ZM108.56 87.5928L110.339 86.6805L110.294 86.5915L110.24 86.5075L108.56 87.5928ZM118.276 106.551L116.596 107.636L120.056 105.639L118.276 106.551ZM106.717 88.6562L104.937 89.5685L104.983 89.6575L105.037 89.7415L106.717 88.6562ZM97 69.6982L98.68 68.613L95.2202 70.6105L97 69.6982ZM137.283 88.6562L138.963 89.7416L139.017 89.6576L139.063 89.5685L137.283 88.6562ZM125.723 106.55L123.943 105.637L127.403 107.635L125.723 106.55ZM135.44 87.5928L133.76 86.5075L133.706 86.5915L133.661 86.6804L135.44 87.5928ZM147 69.6992L148.78 70.6115L145.32 68.6139L147 69.6992ZM115.594 84.9795L117.549 84.559L117.528 84.4612L117.497 84.366L115.594 84.9795ZM120.072 105.807L118.169 106.42L122.028 105.386L120.072 105.807ZM113.538 85.5303L111.583 85.9507L111.604 86.0485L111.634 86.1437L113.538 85.5303ZM109.06 64.7031L110.963 64.0897L107.104 65.1236L109.06 64.7031ZM130.462 85.5303L132.365 86.1438L132.396 86.0486L132.417 85.9508L130.462 85.5303ZM123.927 105.807L121.971 105.386L125.83 106.42L123.927 105.807ZM128.406 84.9795L126.503 84.3659L126.472 84.4611L126.451 84.559L128.406 84.9795ZM134.941 64.7041L136.897 65.1247L133.038 64.0905L134.941 64.7041ZM123.064 84.2764L125.062 84.3763L125.067 84.2764L125.062 84.1765L123.064 84.2764ZM122 105.553L120.002 105.653L123.998 105.653L122 105.553ZM120.937 84.2764L118.939 84.1764L118.934 84.2763L118.939 84.3762L120.937 84.2764ZM122.001 63L123.998 62.9002L120.003 62.9001L122.001 63ZM123.064 141.724L121.067 141.624L120.002 162.9L122 163L123.998 163.1L125.062 141.824L123.064 141.724ZM122 163L123.998 162.9L122.934 141.624L120.937 141.724L118.939 141.823L120.002 163.1L122 163ZM120.937 141.724L122.934 141.824L123.998 120.547L122.001 120.447L120.003 120.347L118.939 141.624L120.937 141.724ZM122.001 120.447L120.003 120.547L121.067 141.823L123.064 141.724L125.062 141.624L123.998 120.347L122.001 120.447ZM115.594 141.021L113.69 140.407L107.155 160.682L109.059 161.296L110.962 161.909L117.497 141.634L115.594 141.021ZM109.059 161.296L111.014 161.716L115.493 140.89L113.538 140.47L111.583 140.049L107.103 160.875L109.059 161.296ZM113.538 140.47L115.442 141.083L121.977 120.807L120.073 120.193L118.17 119.58L111.635 139.856L113.538 140.47ZM120.073 120.193L118.118 119.773L113.638 140.6L115.594 141.021L117.549 141.441L122.029 120.614L120.073 120.193ZM130.462 140.47L128.507 140.89L132.985 161.716L134.94 161.296L136.896 160.875L132.417 140.049L130.462 140.47ZM134.94 161.296L136.844 160.682L130.31 140.407L128.406 141.021L126.503 141.634L133.037 161.909L134.94 161.296ZM128.406 141.021L130.362 140.6L125.883 119.773L123.928 120.193L121.972 120.614L126.451 141.441L128.406 141.021ZM123.928 120.193L122.024 120.807L128.558 141.083L130.462 140.47L132.366 139.856L125.831 119.58L123.928 120.193ZM137.283 137.344L135.503 138.256L145.22 157.214L147 156.302L148.78 155.39L139.063 136.432L137.283 137.344ZM147 156.302L148.68 155.217L137.12 137.322L135.44 138.407L133.76 139.492L145.32 157.387L147 156.302ZM135.44 138.407L137.22 137.495L127.503 118.537L125.724 119.449L123.944 120.361L133.661 139.319L135.44 138.407ZM125.724 119.449L124.044 120.534L135.603 138.429L137.283 137.344L138.963 136.259L127.404 118.364L125.724 119.449ZM108.56 138.407L106.88 137.322L95.3191 155.215L96.999 156.301L98.6789 157.386L110.239 139.493L108.56 138.407ZM96.999 156.301L98.7788 157.213L108.497 138.256L106.717 137.344L104.937 136.431L95.2192 155.388L96.999 156.301ZM106.717 137.344L108.397 138.429L119.956 120.534L118.276 119.449L116.596 118.364L105.037 136.259L106.717 137.344ZM118.276 119.449L116.497 118.537L106.78 137.495L108.56 138.407L110.339 139.319L120.056 120.361L118.276 119.449ZM143.063 132.559L141.58 133.9L155.872 149.697L157.355 148.355L158.839 147.014L144.547 131.217L143.063 132.559ZM157.355 148.355L158.697 146.872L142.9 132.579L141.559 134.062L140.217 135.546L156.014 149.839L157.355 148.355ZM141.559 134.062L143.042 132.721L128.75 116.924L127.267 118.266L125.784 119.607L140.076 135.404L141.559 134.062ZM127.267 118.266L125.925 119.749L141.722 134.042L143.063 132.559L144.405 131.076L128.608 116.783L127.267 118.266ZM102.441 134.062L101.1 132.579L85.3027 146.871L86.6445 148.354L87.9863 149.838L103.783 135.546L102.441 134.062ZM86.6445 148.354L88.1276 149.696L102.42 133.9L100.937 132.559L99.4535 131.217L85.1615 147.013L86.6445 148.354ZM100.937 132.559L102.278 134.042L118.076 119.75L116.734 118.267L115.393 116.783L99.5948 131.075L100.937 132.559ZM116.734 118.267L115.251 116.925L100.958 132.721L102.441 134.062L103.924 135.404L118.217 119.609L116.734 118.267ZM147.407 126.44L146.322 128.12L164.216 139.68L165.301 138L166.386 136.32L148.493 124.76L147.407 126.44ZM165.301 138L166.213 136.22L147.256 126.503L146.344 128.283L145.431 130.063L164.389 139.78L165.301 138ZM146.344 128.283L147.429 126.603L129.536 115.043L128.45 116.723L127.365 118.403L145.258 129.963L146.344 128.283ZM128.45 116.723L127.538 118.502L146.495 128.22L147.407 126.44L148.32 124.661L129.363 114.943L128.45 116.723ZM97.6562 128.283L96.7441 126.503L77.7861 136.219L78.6982 137.999L79.6104 139.779L98.5684 130.063L97.6562 128.283ZM78.6982 137.999L79.7834 139.679L97.6779 128.12L96.5928 126.44L95.5076 124.76L77.6131 136.319L78.6982 137.999ZM96.5928 126.44L97.505 128.22L116.463 118.503L115.551 116.724L114.639 114.944L95.6805 124.661L96.5928 126.44ZM115.551 116.724L114.466 115.044L96.571 126.603L97.6562 128.283L98.7415 129.963L116.636 118.404L115.551 116.724ZM150.021 119.406L149.407 121.31L169.682 127.845L170.296 125.941L170.909 124.038L150.634 117.503L150.021 119.406ZM170.296 125.941L170.716 123.986L149.89 119.507L149.47 121.462L149.049 123.417L169.875 127.897L170.296 125.941ZM149.47 121.462L150.083 119.558L129.807 113.023L129.193 114.927L128.58 116.83L148.856 123.365L149.47 121.462ZM129.193 114.927L128.773 116.882L149.6 121.362L150.021 119.406L150.441 117.451L129.614 112.971L129.193 114.927ZM94.5303 121.462L94.1098 119.507L73.2827 123.985L73.7031 125.94L74.1236 127.896L94.9507 123.417L94.5303 121.462ZM73.7031 125.94L74.3166 127.844L94.5929 121.31L93.9795 119.406L93.366 117.503L73.0897 124.037L73.7031 125.94ZM93.9795 119.406L94.3999 121.362L115.227 116.883L114.807 114.928L114.386 112.972L93.559 117.451L93.9795 119.406ZM114.807 114.928L114.193 113.024L93.9168 119.558L94.5303 121.462L95.1437 123.366L115.42 116.831L114.807 114.928ZM114.553 113L114.453 111.002L93.1765 112.066L93.2764 114.063L93.3762 116.061L114.653 114.998L114.553 113ZM93.2764 114.063L93.3763 112.066L72.0999 111.002L72 112.999L71.9001 114.997L93.1764 116.061L93.2764 114.063ZM72 112.999L72.0998 114.997L93.3762 113.933L93.2764 111.936L93.1765 109.938L71.9002 111.002L72 112.999ZM93.2764 111.936L93.1764 113.933L114.453 114.998L114.553 113L114.653 111.002L93.3763 109.938L93.2764 111.936ZM172.001 113L171.901 111.002L150.624 112.066L150.724 114.063L150.823 116.061L172.101 114.998L172.001 113ZM150.724 114.063L150.824 112.066L129.547 111.002L129.447 112.999L129.347 114.997L150.624 116.061L150.724 114.063ZM129.447 112.999L129.547 114.997L150.823 113.933L150.724 111.936L150.624 109.938L129.347 111.002L129.447 112.999ZM150.724 111.936L150.624 113.933L171.901 114.998L172.001 113L172.101 111.002L150.824 109.938L150.724 111.936ZM94.5303 104.538L93.9167 106.442L114.193 112.977L114.807 111.073L115.42 109.17L95.1438 102.635L94.5303 104.538ZM114.807 111.073L115.227 109.118L94.4 104.638L93.9795 106.594L93.559 108.549L114.386 113.029L114.807 111.073ZM93.9795 106.594L94.593 104.69L74.3177 98.155L73.7041 100.059L73.0905 101.962L93.3659 108.497L93.9795 106.594ZM73.7041 100.059L73.2835 102.014L94.1097 106.493L94.5303 104.538L94.9508 102.583L74.1247 98.1033L73.7041 100.059ZM150.021 106.594L149.6 104.638L128.773 109.117L129.193 111.072L129.614 113.028L150.441 108.549L150.021 106.594ZM129.193 111.072L129.807 112.976L150.083 106.442L149.47 104.538L148.856 102.634L128.58 109.169L129.193 111.072ZM149.47 104.538L149.89 106.493L170.716 102.015L170.296 100.06L169.875 98.1043L149.049 102.583L149.47 104.538ZM170.296 100.06L169.682 98.156L149.407 104.69L150.021 106.594L150.634 108.497L170.909 101.963L170.296 100.06ZM97.6562 97.7168L96.571 99.3967L114.465 110.956L115.55 109.276L116.635 107.596L98.7415 96.0369L97.6562 97.7168ZM115.55 109.276L116.462 107.497L97.5051 97.7798L96.5928 99.5596L95.6805 101.339L114.638 111.056L115.55 109.276ZM96.5928 99.5596L97.6781 97.8797L79.7846 86.3191L78.6992 87.999L77.6139 89.6789L95.5074 101.239L96.5928 99.5596ZM78.6992 87.999L77.7869 89.7788L96.7439 99.4966L97.6562 97.7168L98.5686 95.937L79.6116 86.2192L78.6992 87.999ZM147.407 99.5596L146.495 97.7797L127.537 107.496L128.449 109.275L129.361 111.055L148.319 101.339L147.407 99.5596ZM128.449 109.275L129.534 110.955L147.429 99.3968L146.344 97.7168L145.259 96.0368L127.364 107.595L128.449 109.275ZM146.344 97.7168L147.256 99.4966L166.214 89.7798L165.302 88L164.39 86.2202L145.432 95.937L146.344 97.7168ZM165.302 88L164.217 86.32L146.322 97.8796L147.407 99.5596L148.492 101.24L166.387 89.68L165.302 88ZM102.441 91.9365L100.958 93.2783L115.25 109.076L116.733 107.734L118.217 106.393L103.925 90.5948L102.441 91.9365ZM116.733 107.734L118.075 106.251L102.279 91.9584L100.938 93.4414L99.5956 94.9244L115.391 109.217L116.733 107.734ZM100.938 93.4414L102.421 92.0996L88.1286 76.3027L86.6455 77.6445L85.1624 78.9863L99.4544 94.7832L100.938 93.4414ZM86.6455 77.6445L85.3037 79.1276L101.1 93.4196L102.441 91.9365L103.783 90.4535L87.9874 76.1615L86.6455 77.6445ZM143.062 93.4414L141.721 91.9583L125.924 106.25L127.266 107.733L128.607 109.216L144.404 94.9245L143.062 93.4414ZM127.266 107.733L128.749 109.075L143.042 93.2784L141.559 91.9365L140.076 90.5947L125.783 106.392L127.266 107.733ZM141.559 91.9365L142.9 93.4196L158.697 79.1276L157.355 77.6445L156.014 76.1614L140.217 90.4534L141.559 91.9365ZM157.355 77.6445L155.872 76.3027L141.579 92.0996L143.062 93.4414L144.546 94.7833L158.839 78.9864L157.355 77.6445ZM108.56 87.5928L106.78 88.505L116.497 107.463L118.276 106.551L120.056 105.639L110.339 86.6805L108.56 87.5928ZM118.276 106.551L119.956 105.466L108.397 87.571L106.717 88.6562L105.037 89.7415L116.596 107.636L118.276 106.551ZM106.717 88.6562L108.497 87.744L98.7798 68.786L97 69.6982L95.2202 70.6105L104.937 89.5685L106.717 88.6562ZM97 69.6982L95.32 70.7835L106.88 88.678L108.56 87.5928L110.24 86.5075L98.68 68.613L97 69.6982ZM137.283 88.6562L135.603 87.5709L124.043 105.464L125.723 106.55L127.403 107.635L138.963 89.7416L137.283 88.6562ZM125.723 106.55L127.502 107.462L137.22 88.5051L135.44 87.5928L133.661 86.6804L123.943 105.637L125.723 106.55ZM135.44 87.5928L137.12 88.678L148.68 70.7845L147 69.6992L145.32 68.6139L133.76 86.5075L135.44 87.5928ZM147 69.6992L145.22 68.7869L135.503 87.744L137.283 88.6562L139.063 89.5685L148.78 70.6115L147 69.6992ZM115.594 84.9795L113.638 85.3999L118.117 106.227L120.072 105.807L122.028 105.386L117.549 84.559L115.594 84.9795ZM120.072 105.807L121.976 105.193L115.442 84.9168L113.538 85.5303L111.634 86.1437L118.169 106.42L120.072 105.807ZM113.538 85.5303L115.493 85.1098L111.015 64.2827L109.06 64.7031L107.104 65.1236L111.583 85.9507L113.538 85.5303ZM109.06 64.7031L107.156 65.3166L113.69 85.5929L115.594 84.9795L117.497 84.366L110.963 64.0897L109.06 64.7031ZM130.462 85.5303L128.558 84.9167L122.023 105.193L123.927 105.807L125.83 106.42L132.365 86.1438L130.462 85.5303ZM123.927 105.807L125.882 106.227L130.362 85.4L128.406 84.9795L126.451 84.559L121.971 105.386L123.927 105.807ZM128.406 84.9795L130.31 85.593L136.845 65.3177L134.941 64.7041L133.038 64.0905L126.503 84.3659L128.406 84.9795ZM134.941 64.7041L132.986 64.2835L128.507 85.1097L130.462 85.5303L132.417 85.9508L136.897 65.1247L134.941 64.7041ZM123.064 84.2764L121.067 84.1764L120.002 105.453L122 105.553L123.998 105.653L125.062 84.3763L123.064 84.2764ZM122 105.553L123.998 105.453L122.934 84.1765L120.937 84.2764L118.939 84.3762L120.002 105.653L122 105.553ZM120.937 84.2764L122.934 84.3763L123.998 63.0999L122.001 63L120.003 62.9001L118.939 84.1764L120.937 84.2764ZM122.001 63L120.003 63.0998L121.067 84.3762L123.064 84.2764L125.062 84.1765L123.998 62.9002L122.001 63Z" fill="white" mask="url(#path-10-outside-1_7_2)"/>
<mask id="path-12-inside-2_7_2" fill="white">
<path d="M116.003 166C116.003 164.895 116.898 164 118.003 164H125.15C126.255 164 127.15 164.895 127.15 166V175.451C127.15 175.802 127.058 176.146 126.883 176.45L123.328 182.616C122.56 183.947 120.641 183.952 119.867 182.624L116 175.988C116 175.988 116 175.986 116.002 175.986C116.002 175.986 116.003 175.986 116.003 175.985V166Z"/>
</mask>
<path d="M116.003 166C116.003 164.895 116.898 164 118.003 164H125.15C126.255 164 127.15 164.895 127.15 166V175.451C127.15 175.802 127.058 176.146 126.883 176.45L123.328 182.616C122.56 183.947 120.641 183.952 119.867 182.624L116 175.988C116 175.988 116 175.986 116.002 175.986C116.002 175.986 116.003 175.986 116.003 175.985V166Z" fill="#FF9900"/>
<path d="M116 175.988L116.864 175.485L116 175.988ZM119.867 182.624L120.731 182.121L119.867 182.624ZM118.003 164V165H125.15V164V163H118.003V164ZM127.15 166H126.15V175.451H127.15H128.15V166H127.15ZM126.883 176.45L126.017 175.951L122.462 182.117L123.328 182.616L124.194 183.116L127.749 176.949L126.883 176.45ZM119.867 182.624L120.731 182.121L116.864 175.485L116 175.988L115.136 176.492L119.003 183.128L119.867 182.624ZM116.003 175.985H117.003V166H116.003H115.003V175.985H116.003ZM116.002 175.986V176.986C116.555 176.986 117.003 176.538 117.003 175.985H116.003H115.003C115.003 175.433 115.45 174.986 116.002 174.986V175.986ZM116 175.988L116.864 175.485C117.252 176.151 116.772 176.986 116.002 176.986V175.986V174.986C115.229 174.986 114.747 175.824 115.136 176.492L116 175.988ZM123.328 182.616L122.462 182.117C122.078 182.782 121.118 182.785 120.731 182.121L119.867 182.624L119.003 183.128C120.164 185.119 123.043 185.112 124.194 183.116L123.328 182.616ZM127.15 175.451H126.15C126.15 175.626 126.104 175.799 126.017 175.951L126.883 176.45L127.749 176.949C128.012 176.494 128.15 175.977 128.15 175.451H127.15ZM125.15 164V165C125.703 165 126.15 165.448 126.15 166H127.15H128.15C128.15 164.343 126.807 163 125.15 163V164ZM118.003 164V163C116.346 163 115.003 164.343 115.003 166H116.003H117.003C117.003 165.448 117.451 165 118.003 165V164Z" fill="white" mask="url(#path-12-inside-2_7_2)"/>
<mask id="path-14-inside-3_7_2" fill="white">
<path d="M68.6173 107.003C69.7219 107.003 70.6173 107.898 70.6173 109.003V116.15C70.6173 117.255 69.7219 118.15 68.6173 118.15H59.1663C58.8156 118.15 58.4711 118.058 58.1673 117.883L52.001 114.328C50.6699 113.56 50.6654 111.641 51.993 110.867L58.6289 107C58.6298 107 58.631 107 58.631 107.001C58.631 107.002 58.6316 107.003 58.6324 107.003H68.6173Z"/>
</mask>
<path d="M68.6173 107.003C69.7219 107.003 70.6173 107.898 70.6173 109.003V116.15C70.6173 117.255 69.7219 118.15 68.6173 118.15H59.1663C58.8156 118.15 58.4711 118.058 58.1673 117.883L52.001 114.328C50.6699 113.56 50.6654 111.641 51.993 110.867L58.6289 107C58.6298 107 58.631 107 58.631 107.001C58.631 107.002 58.6316 107.003 58.6324 107.003H68.6173Z" fill="#FF9900"/>
<path d="M58.6289 107L59.1323 107.864L58.6289 107ZM51.993 110.867L52.4965 111.731L51.993 110.867ZM70.6173 109.003H69.6173V116.15H70.6173H71.6173V109.003H70.6173ZM68.6173 118.15V117.15H59.1663V118.15V119.15H68.6173V118.15ZM58.1673 117.883L58.6668 117.017L52.5005 113.462L52.001 114.328L51.5016 115.194L57.6678 118.749L58.1673 117.883ZM51.993 110.867L52.4965 111.731L59.1323 107.864L58.6289 107L58.1254 106.136L51.4895 110.003L51.993 110.867ZM58.6324 107.003V108.003H68.6173V107.003V106.003H58.6324V107.003ZM58.631 107.001H57.631C57.631 107.555 58.0794 108.003 58.6324 108.003V107.003V106.003C59.1839 106.003 59.631 106.45 59.631 107.001H58.631ZM58.6289 107L59.1323 107.864C58.4665 108.252 57.631 107.772 57.631 107.001H58.631H59.631C59.631 106.229 58.7932 105.747 58.1254 106.136L58.6289 107ZM52.001 114.328L52.5005 113.462C51.8349 113.078 51.8327 112.118 52.4965 111.731L51.993 110.867L51.4895 110.003C49.4982 111.164 49.5048 114.043 51.5016 115.194L52.001 114.328ZM59.1663 118.15V117.15C58.9909 117.15 58.8187 117.104 58.6668 117.017L58.1673 117.883L57.6678 118.749C58.1235 119.012 58.6403 119.15 59.1663 119.15V118.15ZM70.6173 116.15H69.6173C69.6173 116.703 69.1696 117.15 68.6173 117.15V118.15V119.15C70.2742 119.15 71.6173 117.807 71.6173 116.15H70.6173ZM70.6173 109.003H71.6173C71.6173 107.346 70.2742 106.003 68.6173 106.003V107.003V108.003C69.1696 108.003 69.6173 108.451 69.6173 109.003H70.6173Z" fill="white" mask="url(#path-14-inside-3_7_2)"/>
<mask id="path-16-inside-4_7_2" fill="white">
<path d="M175 119.147C173.895 119.147 173 118.252 173 117.147V110C173 108.895 173.895 108 175 108H184.451C184.802 108 185.146 108.092 185.45 108.267L191.616 111.822C192.947 112.59 192.952 114.51 191.624 115.283L184.988 119.15C184.987 119.151 184.986 119.15 184.986 119.149C184.986 119.148 184.986 119.147 184.985 119.147H175Z"/>
</mask>
<path d="M175 119.147C173.895 119.147 173 118.252 173 117.147V110C173 108.895 173.895 108 175 108H184.451C184.802 108 185.146 108.092 185.45 108.267L191.616 111.822C192.947 112.59 192.952 114.51 191.624 115.283L184.988 119.15C184.987 119.151 184.986 119.15 184.986 119.149C184.986 119.148 184.986 119.147 184.985 119.147H175Z" fill="#FF9900"/>
<path d="M184.988 119.15L184.485 118.286L184.988 119.15ZM191.624 115.283L191.121 114.419L191.624 115.283ZM173 117.147H174V110H173H172V117.147H173ZM175 108V109H184.451V108V107H175V108ZM185.45 108.267L184.95 109.134L191.117 112.689L191.616 111.822L192.116 110.956L185.949 107.401L185.45 108.267ZM191.624 115.283L191.121 114.419L184.485 118.286L184.988 119.15L185.492 120.014L192.128 116.147L191.624 115.283ZM184.985 119.147V118.147H175V119.147V120.147H184.985V119.147ZM184.986 119.149H185.986C185.986 118.596 185.538 118.147 184.985 118.147V119.147V120.147C184.433 120.147 183.986 119.7 183.986 119.149H184.986ZM184.988 119.15L184.485 118.286C185.151 117.898 185.986 118.379 185.986 119.149H184.986H183.986C183.986 119.921 184.824 120.403 185.492 120.014L184.988 119.15ZM191.616 111.822L191.117 112.689C191.782 113.073 191.784 114.032 191.121 114.419L191.624 115.283L192.128 116.147C194.119 114.987 194.112 112.107 192.116 110.956L191.616 111.822ZM184.451 108V109C184.626 109 184.799 109.046 184.95 109.134L185.45 108.267L185.949 107.401C185.494 107.138 184.977 107 184.451 107V108ZM173 110H174C174 109.448 174.448 109 175 109V108V107C173.343 107 172 108.343 172 110H173ZM173 117.147H172C172 118.804 173.343 120.147 175 120.147V119.147V118.147C174.448 118.147 174 117.7 174 117.147H173Z" fill="white" mask="url(#path-16-inside-4_7_2)"/>
<mask id="path-18-inside-5_7_2" fill="white">
<path d="M127.147 59.6173C127.147 60.7219 126.252 61.6173 125.147 61.6173H118C116.895 61.6173 116 60.7219 116 59.6173V50.1663C116 49.8156 116.092 49.4711 116.267 49.1673L119.822 43.001C120.59 41.6699 122.51 41.6654 123.283 42.993L127.15 49.6289C127.151 49.6298 127.15 49.631 127.149 49.631C127.148 49.631 127.147 49.6316 127.147 49.6324V59.6173Z"/>
</mask>
<path d="M127.147 59.6173C127.147 60.7219 126.252 61.6173 125.147 61.6173H118C116.895 61.6173 116 60.7219 116 59.6173V50.1663C116 49.8156 116.092 49.4711 116.267 49.1673L119.822 43.001C120.59 41.6699 122.51 41.6654 123.283 42.993L127.15 49.6289C127.151 49.6298 127.15 49.631 127.149 49.631C127.148 49.631 127.147 49.6316 127.147 49.6324V59.6173Z" fill="#FF9900"/>
<path d="M127.15 49.6289L126.286 50.1323L127.15 49.6289ZM123.283 42.993L122.419 43.4965L123.283 42.993ZM125.147 61.6173V60.6173H118V61.6173V62.6173H125.147V61.6173ZM116 59.6173H117V50.1663H116H115V59.6173H116ZM116.267 49.1673L117.134 49.6668L120.689 43.5005L119.822 43.001L118.956 42.5016L115.401 48.6678L116.267 49.1673ZM123.283 42.993L122.419 43.4965L126.286 50.1323L127.15 49.6289L128.014 49.1254L124.147 42.4895L123.283 42.993ZM127.147 49.6324H126.147V59.6173H127.147H128.147V49.6324H127.147ZM127.149 49.631V48.631C126.596 48.631 126.147 49.0794 126.147 49.6324H127.147H128.147C128.147 50.1839 127.7 50.631 127.149 50.631V49.631ZM127.15 49.6289L126.286 50.1323C125.898 49.4665 126.379 48.631 127.149 48.631V49.631V50.631C127.921 50.631 128.403 49.7932 128.014 49.1254L127.15 49.6289ZM119.822 43.001L120.689 43.5005C121.073 42.8349 122.032 42.8327 122.419 43.4965L123.283 42.993L124.147 42.4895C122.987 40.4982 120.107 40.5048 118.956 42.5016L119.822 43.001ZM116 50.1663H117C117 49.9909 117.046 49.8187 117.134 49.6668L116.267 49.1673L115.401 48.6678C115.138 49.1235 115 49.6403 115 50.1663H116ZM118 61.6173V60.6173C117.448 60.6173 117 60.1696 117 59.6173H116H115C115 61.2742 116.343 62.6173 118 62.6173V61.6173ZM125.147 61.6173V62.6173C126.804 62.6173 128.147 61.2742 128.147 59.6173H127.147H126.147C126.147 60.1696 125.7 60.6173 125.147 60.6173V61.6173Z" fill="white" mask="url(#path-18-inside-5_7_2)"/>
<path d="M35.0922 222.48H46.0522L36.1722 233.8L46.2522 250H35.8122L30.0922 239.92L25.2922 243.84V250H16.4522V222.48H25.2922V234.24L35.0922 222.48ZM74.2125 250L73.0525 246.12H63.4125L62.2525 250H53.2125L63.2525 222.48H73.5325L83.5725 250H74.2125ZM65.2525 239.96H71.2125L68.3325 230.16H68.1725L65.2525 239.96ZM98.1978 250L88.4378 222.48H97.8778L103.398 240.88H103.558L109.118 222.48H118.158L108.438 250H98.1978ZM144.025 250L142.865 246.12H133.225L132.065 250H123.025L133.065 222.48H143.345L153.385 250H144.025ZM135.065 239.96H141.025L138.145 230.16H137.985L135.065 239.96ZM175.135 222C179.215 222 182.441 223.027 184.815 225.08C187.188 227.107 188.375 230.013 188.375 233.8H179.935C179.935 232.2 179.508 230.933 178.655 230C177.828 229.067 176.641 228.6 175.095 228.6C173.308 228.6 171.988 229.16 171.135 230.28C170.308 231.4 169.895 232.96 169.895 234.96V237.52C169.895 239.493 170.308 241.053 171.135 242.2C171.988 243.32 173.281 243.88 175.015 243.88C176.721 243.88 178.015 243.44 178.895 242.56C179.775 241.68 180.215 240.44 180.215 238.84H188.375C188.375 242.6 187.215 245.48 184.895 247.48C182.601 249.48 179.348 250.48 175.135 250.48C170.441 250.48 166.881 249.28 164.455 246.88C162.055 244.48 160.855 240.933 160.855 236.24C160.855 231.547 162.055 228 164.455 225.6C166.881 223.2 170.441 222 175.135 222ZM217.708 250V239.56H207.988V250H199.148V222.48H207.988V232.52H217.708V222.48H226.548V250H217.708Z" fill="#1D3960"/>
</svg>
