<svg width="211" height="29" viewBox="0 0 211 29" fill="none" xmlns="http://www.w3.org/2000/svg">
<path d="M18.64 0.479999H29.6L19.72 11.8L29.8 28H19.36L13.64 17.92L8.84004 21.84V28H3.91006e-05V0.479999H8.84004V12.24L18.64 0.479999ZM57.7604 28L56.6004 24.12H46.9604L45.8004 28H36.7604L46.8004 0.479999H57.0804L67.1204 28H57.7604ZM48.8004 17.96H54.7604L51.8804 8.16H51.7204L48.8004 17.96ZM81.7457 28L71.9857 0.479999H81.4257L86.9457 18.88H87.1057L92.6657 0.479999H101.706L91.9857 28H81.7457ZM127.573 28L126.413 24.12H116.773L115.613 28H106.573L116.613 0.479999H126.893L136.933 28H127.573ZM118.613 17.96H124.573L121.693 8.16H121.533L118.613 17.96ZM158.683 -1.90735e-06C162.763 -1.90735e-06 165.989 1.02667 168.363 3.08C170.736 5.10666 171.923 8.01333 171.923 11.8H163.483C163.483 10.2 163.056 8.93333 162.203 8C161.376 7.06667 160.189 6.6 158.643 6.6C156.856 6.6 155.536 7.16 154.683 8.28C153.856 9.4 153.443 10.96 153.443 12.96V15.52C153.443 17.4933 153.856 19.0533 154.683 20.2C155.536 21.32 156.829 21.88 158.563 21.88C160.269 21.88 161.563 21.44 162.443 20.56C163.323 19.68 163.763 18.44 163.763 16.84H171.923C171.923 20.6 170.763 23.48 168.443 25.48C166.149 27.48 162.896 28.48 158.683 28.48C153.989 28.48 150.429 27.28 148.003 24.88C145.603 22.48 144.403 18.9333 144.403 14.24C144.403 9.54667 145.603 6 148.003 3.6C150.429 1.2 153.989 -1.90735e-06 158.683 -1.90735e-06ZM201.255 28V17.56H191.535V28H182.695V0.479999H191.535V10.52H201.255V0.479999H210.095V28H201.255Z" fill="#1D3960"/>
</svg>
